<?xml version="1.0" encoding="utf-8"?>
<!-- Generator: Adobe Illustrator 16.0.3, SVG Export Plug-In . SVG Version: 6.00 Build 0)  -->
<!DOCTYPE svg PUBLIC "-//W3C//DTD SVG 1.1//EN" "http://www.w3.org/Graphics/SVG/1.1/DTD/svg11.dtd">
<svg version="1.1" id="Layer_1" xmlns="http://www.w3.org/2000/svg" xmlns:xlink="http://www.w3.org/1999/xlink" x="0px" y="0px"
	 width="439.667px" height="260px" viewBox="0 0 439.667 260" enable-background="new 0 0 439.667 260" xml:space="preserve">
<g>
	<defs>
		<rect id="SVGID_1_" x="-260.333" y="-150.333" width="960" height="560"/>
	</defs>
	<clipPath id="SVGID_2_">
		<use xlink:href="#SVGID_1_"  overflow="visible"/>
	</clipPath>
	<path clip-path="url(#SVGID_2_)" fill="#A1BC30" d="M46.416,94.141c-5.158-0.017-10.318-0.14-15.473-0.029
		c-13.25,0.284-25.142-8.377-29.474-20.845c-0.746-2.147-1.011-4.408-1.563-6.601V1.146C0.345,1.13,0.784,1.101,1.223,1.101
		c20.513-0.003,41.026-0.053,61.539,0.016C74.911,1.158,86.004,8.785,90.67,20.184c1.625,3.971,2.356,8.095,2.337,12.378
		c-0.022,5.118,0.022,10.235,0.037,15.352c-0.035,0.025-0.07,0.051-0.103,0.079c-5.318-0.016-10.636-0.005-15.953-0.058
		c-2.701-0.027-5.343,0.368-7.912,1.105c-12.934,3.711-21.847,14.787-22.524,28.295c-0.277,5.543-0.033,11.113-0.027,16.671
		C46.484,94.047,46.447,94.092,46.416,94.141"/>
	<path clip-path="url(#SVGID_2_)" fill="#C43232" d="M186.626,0.907c-0.031,0.475-0.09,0.951-0.09,1.426
		c-0.005,9.879,0.008,19.757-0.008,29.636c-0.01,6.758-3.935,12.41-10.227,14.781c-1.622,0.611-3.311,0.913-5.041,0.915
		c-10.119,0.008-20.238-0.016-30.356,0.029c-1.081,0.005-1.313-0.295-1.308-1.335c0.041-9.638,0.133-19.278-0.007-28.915
		c-0.135-9.31,6.296-15.341,12.921-16.343c0.099-0.015,0.184-0.127,0.276-0.194H186.626z"/>
	<path clip-path="url(#SVGID_2_)" fill="#201D22" d="M56.787,259.386c-0.947-0.265-1.904-0.498-2.84-0.799
		c-6.475-2.088-10.607-7.554-11.051-14.608c-0.337-5.345,0.892-10.163,4.834-14.02c2.822-2.76,6.295-4.215,10.171-4.6
		c3.762-0.375,7.493-0.119,11.12,1.119c0.782,0.267,1.203,0.512,1.035,1.469c-0.205,1.173-0.204,2.382-0.305,3.746
		c-1.692-0.95-3.35-1.678-5.169-1.948c-2.628-0.392-5.253-0.531-7.84,0.236c-5.919,1.754-9.567,7.549-8.748,13.857
		c1.013,7.793,6.832,12.273,14.763,11.365c2.91-0.333,2.91-0.333,2.91-3.262c0-2.12-0.029-4.241,0.016-6.359
		c0.015-0.693-0.204-0.869-0.87-0.852c-1.719,0.045-3.44-0.012-5.159,0.027c-0.667,0.017-1.045-0.056-0.964-0.877
		c0.097-0.987-0.301-2.294,0.198-2.896c0.531-0.64,1.881-0.183,2.871-0.193c2.599-0.029,5.199,0.02,7.798-0.027
		c0.75-0.014,0.932,0.208,0.927,0.941c-0.032,5.159-0.039,10.319,0.007,15.478c0.007,0.789-0.329,1.039-0.97,1.187
		c-1.446,0.331-2.889,0.676-4.334,1.015H56.787z"/>
	<path clip-path="url(#SVGID_2_)" fill="#201D22" d="M187.346,259.387c-0.737-0.343-1.505-0.634-2.207-1.038
		c-2.859-1.649-4.339-4.275-5.052-7.387c-0.945-4.128-0.871-8.193,1.274-11.972c3.333-5.871,11.815-6.675,16.268-1.599
		c0.095,0.108,0.21,0.197,0.476,0.444c0-3.495,0-6.794,0-10.095c0-1.239,0.021-2.479-0.009-3.719
		c-0.013-0.518,0.147-0.754,0.677-0.677c0.039,0.006,0.08-0.001,0.12,0.001c1.192,0.058,2.724-0.488,3.483,0.201
		c0.714,0.647,0.202,2.197,0.204,3.348c0.016,10.28-0.006,20.559,0.033,30.839c0.004,1.011-0.275,1.341-1.259,1.225
		c-0.985-0.116-2.232,0.392-2.903-0.195c-0.621-0.542-0.045-1.813-0.32-3.047c-1.463,2.006-3.481,2.842-5.505,3.67H187.346z
		 M184.347,246.576c-0.038,1.906,0.293,3.743,1.152,5.449c1.106,2.198,2.719,3.733,5.352,3.8c2.781,0.071,4.76-1.269,5.961-3.668
		c1.838-3.672,1.792-7.415-0.196-11.011c-1.305-2.36-3.439-3.533-6.173-3.329c-2.676,0.2-4.347,1.766-5.315,4.191
		C184.54,243.478,184.366,245.012,184.347,246.576"/>
	<path clip-path="url(#SVGID_2_)" fill="#201D22" d="M8.307,259.387c-9.224-2.253-9.715-16.978-4.94-22.184
		c3.787-4.129,12.269-4.04,15.12,0.274c0.057,0.086,0.153,0.146,0.38,0.355v-3.568c0-3.319,0.026-6.638-0.019-9.955
		c-0.011-0.79,0.209-1.034,0.991-0.979c1.148,0.081,2.661-0.375,3.36,0.199c0.735,0.605,0.216,2.173,0.218,3.317
		c0.018,10.314-0.002,20.629,0.032,30.942c0.003,0.919-0.197,1.287-1.161,1.171c-1.019-0.121-2.41,0.427-2.978-0.206
		c-0.53-0.591-0.206-1.947-0.27-3.203c-1.46,2.132-3.545,3.032-5.693,3.836H8.307z M5.148,246.483
		c-0.059,2.242,0.378,4.374,1.559,6.297c2.424,3.945,7.563,4.124,10.303,0.382c2.539-3.467,2.476-9.443-0.136-12.837
		c-2.994-3.891-8.77-3.21-10.771,1.266C5.405,243.15,5.135,244.788,5.148,246.483"/>
	<path clip-path="url(#SVGID_2_)" fill="#201D22" d="M85.827,259.387c-0.09-0.306-0.376-0.253-0.589-0.309
		c-4.691-1.219-7.284-4.35-8.157-9.008c-0.606-3.239-0.514-6.44,0.835-9.512c2.752-6.265,11.366-8.573,16.739-4.481
		c2.456,1.871,3.365,4.578,3.854,7.468c0.173,1.02,0.112,2.079,0.299,3.096c0.217,1.18-0.34,1.253-1.291,1.245
		c-4.996-0.04-9.993,0-14.99-0.037c-0.872-0.006-1.056,0.208-0.912,1.08c0.863,5.225,5.436,7.97,10.87,6.496
		c1.533-0.416,2.959-1.079,4.504-1.915c0,1.426-0.016,2.691,0.008,3.957c0.009,0.48-0.295,0.6-0.647,0.719
		c-1.188,0.398-2.375,0.8-3.563,1.201H85.827z M87.625,244.466c1.878,0,3.755-0.008,5.633,0.005
		c0.443,0.003,0.723-0.014,0.745-0.613c0.089-2.436-1.833-5.134-4.208-5.816c-3.955-1.134-7.847,1.677-8.167,5.851
		c-0.054,0.715,0.355,0.568,0.724,0.571C84.109,244.47,85.867,244.466,87.625,244.466"/>
	<path clip-path="url(#SVGID_2_)" fill="#201D22" d="M362.787,259.387c-0.073-0.253-0.3-0.208-0.482-0.25
		c-4.448-1.019-7.23-3.782-8.243-8.19c-0.984-4.286-0.884-8.502,1.728-12.301c3.146-4.578,10.313-6.009,15.002-3.025
		c2.782,1.772,3.885,4.553,4.438,7.618c0.197,1.094,0.188,2.225,0.326,3.332c0.125,0.989-0.126,1.346-1.246,1.329
		c-4.953-0.076-9.909-0.014-14.863-0.051c-0.856-0.006-1.17,0.104-1.047,1.096c0.574,4.6,4.961,7.679,9.699,6.745
		c1.961-0.387,3.791-1.116,5.689-2.219c0,1.441-0.021,2.701,0.009,3.958c0.013,0.545-0.343,0.646-0.729,0.772
		c-1.188,0.393-2.375,0.789-3.562,1.186H362.787z M364.504,244.466c1.799,0,3.599-0.031,5.396,0.015
		c0.704,0.019,0.919-0.211,0.838-0.889c-0.237-1.993-0.966-3.723-2.703-4.848c-1.938-1.253-4.004-1.297-6.043-0.296
		c-2.206,1.084-3.108,3.092-3.556,5.378c-0.118,0.607,0.21,0.647,0.67,0.645C360.906,244.458,362.706,244.466,364.504,244.466"/>
	<path clip-path="url(#SVGID_2_)" fill="#201D22" d="M389.186,259.387c-0.185-0.365-0.563-0.235-0.851-0.312
		c-4.426-1.166-7.048-4.073-8.003-8.469c-0.808-3.713-0.686-7.372,1.122-10.845c3.764-7.237,13.978-6.838,17.458-2.686
		c2.029,2.422,2.706,5.293,2.968,8.311c0.214,2.476,0.166,2.479-2.265,2.479c-4.64,0-9.278,0.021-13.917-0.019
		c-0.835-0.008-1.066,0.141-0.938,1.032c0.678,4.729,4.882,7.729,9.665,6.813c1.958-0.375,3.814-1.046,5.681-2.235
		c0,1.48-0.015,2.745,0.008,4.011c0.009,0.551-0.375,0.631-0.757,0.758c-1.15,0.384-2.301,0.772-3.45,1.161H389.186z
		 M390.965,244.467c1.795,0,3.59-0.009,5.385,0.005c0.491,0.004,0.794-0.015,0.788-0.686c-0.023-2.606-1.906-5.138-4.384-5.781
		c-3.872-1.006-7.646,1.784-7.952,5.829c-0.048,0.634,0.207,0.639,0.658,0.636C387.295,244.459,389.13,244.465,390.965,244.467"/>
	<path clip-path="url(#SVGID_2_)" fill="#201D22" d="M246.867,259.386c-1.002-0.351-2.036-0.63-3.001-1.065
		c-3.501-1.578-5.318-4.47-6.009-8.113c-0.693-3.649-0.57-7.245,1.295-10.589c2.927-5.247,10.297-7.209,15.443-4.103
		c3.121,1.885,4.187,4.985,4.718,8.347c0.162,1.022,0.15,2.07,0.278,3.1c0.095,0.753-0.171,0.928-0.908,0.923
		c-5.075-0.035-10.15,0.013-15.225-0.044c-1.054-0.012-1.265,0.264-1.08,1.263c0.94,5.083,5.462,7.759,10.793,6.338
		c1.538-0.41,2.995-1.017,4.533-1.972c0,1.478-0.008,2.773,0.004,4.067c0.004,0.489-0.351,0.566-0.694,0.677
		c-1.223,0.391-2.445,0.782-3.667,1.172H246.867z M248.436,244.466c1.875,0,3.749,0.004,5.624-0.004
		c0.329-0.001,0.677,0.124,0.717-0.488c0.157-2.393-1.854-5.265-4.226-5.931c-3.897-1.095-7.29,1.267-8.127,5.59
		c-0.149,0.775,0.096,0.855,0.746,0.844C244.926,244.445,246.681,244.466,248.436,244.466"/>
	<path clip-path="url(#SVGID_2_)" fill="#201D22" d="M273.266,259.386c-1.634-0.581-3.341-0.972-4.777-2.042
		c-2.826-2.104-4.07-5.047-4.457-8.416c-0.466-4.053,0.02-7.904,2.771-11.162c4.131-4.888,12.981-4.916,16.604-0.017
		c2.09,2.827,2.443,6.169,2.54,9.554c0.024,0.867-0.636,0.549-1.025,0.551c-4.995,0.02-9.991,0.013-14.986,0.014
		c-1.363,0-1.41,0.057-1.149,1.4c0.877,4.549,5.034,7.315,9.631,6.424c1.964-0.381,3.804-1.088,5.689-2.216
		c0,1.432-0.021,2.69,0.011,3.948c0.014,0.541-0.317,0.659-0.717,0.785c-1.22,0.386-2.437,0.784-3.654,1.177H273.266z
		 M274.826,244.466c1.838,0,3.677,0.001,5.515-0.001c0.392,0,0.782,0.082,0.816-0.556c0.131-2.415-1.93-5.263-4.308-5.886
		c-3.972-1.04-7.668,1.637-8.102,5.829c-0.067,0.647,0.253,0.618,0.683,0.616C271.228,244.462,273.027,244.466,274.826,244.466"/>
	<path clip-path="url(#SVGID_2_)" fill="#201D22" d="M131.187,259.386c-2.044-0.751-4.075-1.509-5.669-3.099
		c-3.674-3.667-4.649-8.085-3.502-13.006c1.071-4.599,3.978-7.567,8.555-8.758c6.893-1.793,13.378,1.809,15.184,8.352
		c2.005,7.263-1.662,14.217-8.569,16.25c-0.18,0.053-0.41,0.007-0.479,0.261H131.187z M126.375,246.697
		c0.01,2.11,0.441,4,1.478,5.714c2.822,4.665,9.477,4.653,12.158-0.09c2.01-3.556,2.051-7.274,0.012-10.838
		c-2.837-4.959-9.276-4.938-12.21-0.033C126.826,243.099,126.399,244.902,126.375,246.697"/>
	<path clip-path="url(#SVGID_2_)" fill="#201D22" d="M298.707,259.386c-0.287-0.39-0.772-0.329-1.156-0.497
		c-2.385-1.049-3.565-2.959-3.62-5.464c-0.101-4.596-0.082-9.195-0.041-13.794c0.01-0.983-0.233-1.339-1.245-1.263
		c-1.153,0.087-2.319-0.014-3.477,0.034c-0.651,0.025-0.781-0.219-0.797-0.825c-0.075-2.872-0.095-2.872,2.813-2.871
		c2.683,0,2.683,0,2.682-2.64c-0.001-3.004-0.001-3.004,2.858-3.882c1.625-0.497,1.624-0.497,1.624,1.208
		c-0.001,1.439,0.04,2.882-0.016,4.318c-0.029,0.761,0.159,1.05,0.977,1.014c1.518-0.067,3.039,0.011,4.559-0.032
		c0.662-0.02,0.883,0.154,0.898,0.855c0.064,2.841,0.092,2.84-2.746,2.839c-0.959,0-1.92,0.02-2.879-0.005
		c-0.524-0.013-0.807,0.102-0.803,0.718c0.028,4.198-0.085,8.401,0.069,12.595c0.131,3.561,2.679,5.019,6.008,3.659
		c0.214-0.088,0.434-0.16,0.731-0.27c0,0.645-0.063,1.205,0.013,1.747c0.188,1.354-0.091,2.356-1.653,2.555H298.707z"/>
	<path clip-path="url(#SVGID_2_)" fill="#201D22" d="M311.426,259.386c-0.811-0.282-1.617-0.584-2.436-0.843
		c-0.544-0.173-0.752-0.484-0.693-1.06c0.107-1.059,0.158-2.121,0.24-3.287c1.363,0.692,2.645,1.229,4.023,1.479
		c1.527,0.277,3.028,0.263,4.427-0.52c1.966-1.102,2.211-3.42,0.51-4.895c-0.944-0.817-2.072-1.346-3.19-1.873
		c-1.119-0.526-2.199-1.116-3.256-1.763c-4.748-2.907-3.236-9.631,0.858-11.494c2.676-1.216,5.438-1.256,8.204-0.606
		c2.538,0.595,2.232,0.001,1.949,2.725c-0.058,0.551-0.101,1.104-0.157,1.735c-1.23-0.492-2.444-0.848-3.693-1.087
		c-1.261-0.243-2.483-0.105-3.63,0.423c-1.826,0.839-2.198,2.882-0.843,4.374c0.771,0.849,1.792,1.314,2.797,1.804
		c1.11,0.54,2.239,1.047,3.322,1.636c2.625,1.429,3.822,3.658,3.532,6.634c-0.298,3.042-1.95,5.058-4.788,6.145
		c-0.394,0.151-0.863,0.121-1.177,0.473H311.426z"/>
	<path clip-path="url(#SVGID_2_)" fill="#201D22" d="M408.867,259.386c-0.77-0.286-1.53-0.598-2.311-0.85
		c-0.553-0.179-0.743-0.503-0.692-1.07c0.087-0.993-0.246-2.376,0.281-2.884c0.611-0.587,1.671,0.516,2.584,0.755
		c1.648,0.431,3.28,0.749,4.946,0.203c1.24-0.407,2.182-1.132,2.44-2.526c0.268-1.438-0.433-2.446-1.541-3.11
		c-1.81-1.084-3.751-1.945-5.556-3.036c-3.56-2.152-4.426-6.305-2.062-9.606c1.433-1.999,3.529-2.811,5.869-3.054
		c2.126-0.221,4.215,0.046,6.271,0.652c0.568,0.167,0.819,0.34,0.69,0.965c-0.209,1.01-0.071,2.07-0.404,3.109
		c-2.005-0.648-3.963-1.494-6.136-0.968c-1.27,0.308-2.387,0.829-2.673,2.236c-0.304,1.493,0.491,2.517,1.673,3.297
		c1.305,0.861,2.773,1.401,4.172,2.072c2.902,1.393,4.789,3.442,4.559,6.882c-0.23,3.437-1.942,5.481-5.535,6.683
		c-0.147,0.049-0.316,0.042-0.337,0.25H408.867z"/>
	<path clip-path="url(#SVGID_2_)" fill="#201D22" d="M105.747,259.386c-0.016-0.037-0.024-0.097-0.05-0.105
		c-3.095-1.083-3.083-1.082-2.839-4.257c0.051-0.654,0.156-0.83,0.833-0.486c1.688,0.857,3.476,1.397,5.408,1.275
		c1.016-0.065,1.965-0.327,2.776-0.973c1.442-1.146,1.555-3.119,0.24-4.396c-0.606-0.588-1.33-1.014-2.082-1.394
		c-1.245-0.629-2.506-1.23-3.718-1.919c-3.065-1.738-4.149-3.842-3.663-6.975c0.459-2.957,2.626-5.088,5.814-5.747
		c2.568-0.531,5.075-0.243,7.567,0.47c0.461,0.132,0.688,0.287,0.621,0.809c-0.135,1.064-0.22,2.136-0.337,3.308
		c-1.286-0.54-2.533-0.889-3.814-1.117c-1.135-0.202-2.232-0.065-3.287,0.365c-2.039,0.832-2.479,2.975-0.955,4.555
		c0.796,0.825,1.825,1.269,2.829,1.755c1.04,0.504,2.099,0.973,3.11,1.526c2.695,1.476,3.923,3.73,3.586,6.828
		c-0.323,2.971-1.977,4.861-4.662,5.979c-0.381,0.158-0.865,0.093-1.137,0.498H105.747z"/>
	<path clip-path="url(#SVGID_2_)" fill="#201D22" d="M427.346,259.386c-0.016-0.037-0.023-0.097-0.05-0.105
		c-3.076-1.075-3.065-1.074-2.839-4.25c0.046-0.642,0.132-0.85,0.824-0.498c1.801,0.917,3.706,1.472,5.764,1.252
		c2.256-0.241,3.574-1.547,3.548-3.443c-0.014-0.984-0.545-1.637-1.242-2.209c-0.997-0.818-2.189-1.297-3.321-1.881
		c-0.744-0.384-1.502-0.745-2.224-1.168c-2.968-1.738-4.021-3.805-3.558-6.919c0.418-2.815,2.436-4.96,5.447-5.685
		c2.71-0.652,5.386-0.348,8.035,0.423c0.434,0.127,0.575,0.327,0.523,0.766c-0.126,1.066-0.218,2.137-0.335,3.308
		c-1.254-0.457-2.441-0.848-3.679-1.072c-1.055-0.192-2.073-0.122-3.073,0.196c-1.032,0.328-1.901,0.905-2.131,2.053
		c-0.242,1.205,0.202,2.186,1.146,2.963c0.813,0.667,1.764,1.082,2.694,1.535c0.823,0.4,1.656,0.782,2.483,1.176
		c1.868,0.887,3.136,2.345,3.985,4.2v3.84c-0.619,1.71-1.502,3.224-3.081,4.24c-0.905,0.584-1.941,0.861-2.919,1.279H427.346z"/>
	<path clip-path="url(#SVGID_2_)" fill="#5EB2D9" d="M93.044,47.914c7.836,0.011,15.673,0.026,23.509,0.031
		c7.317,0.006,14.635,0.011,21.952-0.013c0.768-0.002,1.128,0.109,1.127,1.019c-0.033,20.791,0.155,41.586-0.119,62.374
		c-0.143,10.933-5.461,19.334-14.657,25.18c-4.93,3.134-10.417,4.541-16.266,4.539c-20.192-0.008-40.385-0.003-60.577-0.004
		c-1.521,0-1.521-0.001-1.521-1.563c0-14.595,0.001-29.189-0.003-43.783c0-0.518-0.048-1.035-0.073-1.553
		c0.031-0.049,0.068-0.094,0.109-0.135c0.277,0.025,0.555,0.071,0.832,0.071c14.834,0.004,29.668-0.008,44.502,0.027
		c1.019,0.002,1.161-0.379,1.159-1.255C92.997,78.215,93.003,63.581,93,48.947c0-0.318-0.039-0.636-0.059-0.954
		C92.974,47.965,93.009,47.939,93.044,47.914"/>
	<path clip-path="url(#SVGID_2_)" fill="#201D22" d="M338.91,155.998c0-2.621,0.011-5.243-0.002-7.864
		c-0.035-6.637-0.087-13.273-0.12-19.911c-0.045-9.116-0.077-18.232-0.122-27.348c-0.009-1.758,0.009-3.52-0.104-5.272
		c-0.064-1.005,0.32-1.16,1.21-1.155c6.479,0.034,12.959,0.042,19.438-0.007c0.991-0.008,1.157,0.312,1.155,1.211
		c-0.024,20.038-0.019,40.076-0.019,60.113c0,9.719-0.016,19.438,0.023,29.156c0.004,0.996-0.257,1.253-1.25,1.249
		c-8.959-0.04-17.918-0.044-26.877,0.004c-1.064,0.006-1.602-0.295-2.084-1.264c-9.922-19.915-19.884-39.81-29.839-59.708
		c-0.157-0.313-0.33-0.618-0.771-0.918c0,1.348-0.014,2.696,0.002,4.044c0.045,3.757,0.108,7.514,0.153,11.271
		c0.111,9.192,0.213,18.386,0.325,27.578c0.071,5.955,0.138,11.91,0.255,17.864c0.018,0.902-0.223,1.134-1.126,1.128
		c-6.439-0.042-12.879-0.054-19.317,0.007c-1.146,0.012-1.449-0.256-1.447-1.427c0.036-26.637,0.028-53.273,0.028-79.911
		c0-3.08,0.028-6.16-0.018-9.239c-0.013-0.844,0.134-1.163,1.092-1.158c9.438,0.041,18.878,0.03,28.315,0.011
		c0.635-0.001,0.981,0.152,1.278,0.763c9.617,19.792,19.257,39.573,28.895,59.355c0.241,0.498,0.498,0.989,0.748,1.483
		C338.792,156.035,338.85,156.017,338.91,155.998"/>
	<path clip-path="url(#SVGID_2_)" fill="#201D22" d="M399.226,186.401c-8.491-0.195-16.96-1.107-25.232-3.51
		c-0.961-0.278-1.08-0.65-0.978-1.567c0.642-5.758,1.215-11.521,1.777-17.286c0.086-0.873,0.083-1.254,1.181-0.721
		c9.435,4.585,19.362,6.305,29.79,4.873c1.309-0.179,2.555-0.602,3.773-1.121c5.746-2.444,5.82-9.824,1.66-13.159
		c-2.806-2.249-6.129-3.37-9.473-4.443c-5.159-1.656-10.433-2.986-15.354-5.321c-4.983-2.363-9.226-5.571-11.788-10.619
		c-6.864-13.521-1.012-29.133,13.161-35.177c6.412-2.735,13.166-3.823,20.068-4.063c8.146-0.284,16.198,0.455,24.08,2.652
		c1.895,0.528,1.894,0.548,1.733,2.515c-0.42,5.176-0.867,10.349-1.247,15.528c-0.067,0.931-0.336,0.925-1.071,0.612
		c-8.14-3.464-16.633-4.299-25.353-3.31c-1.951,0.221-3.846,0.718-5.592,1.662c-4.818,2.604-5.174,8.557-0.678,11.675
		c2.495,1.73,5.376,2.591,8.245,3.447c5.459,1.628,11.03,2.916,16.223,5.348c5.591,2.617,10.172,6.285,12.604,12.18
		c3.419,8.286,2.813,22.984-6.346,30.876c-4.706,4.055-10.254,6.22-16.22,7.501C409.289,186.025,404.309,186.325,399.226,186.401"/>
	<path clip-path="url(#SVGID_2_)" fill="#201D22" d="M262.67,118.148c-3.324-1.747-6.566-3.263-10.017-4.281
		c-6.932-2.045-13.975-2.879-21.029-0.976c-10.783,2.908-17.004,10.246-19.288,20.998c-1.332,6.27-0.971,12.507,1.519,18.466
		c3.501,8.376,10.031,13.212,18.683,15.327c7.525,1.841,14.991,1.036,22.4-0.811c2.634-0.656,5.215-1.483,7.747-2.458
		c0.541-0.209,0.913-0.387,0.962,0.518c0.297,5.623,0.641,11.244,1.003,16.863c0.045,0.702-0.08,1.059-0.833,1.251
		c-8.63,2.205-17.384,3.491-26.302,3.326c-10.819-0.201-21.159-2.388-30.521-8.087c-10.858-6.609-17.204-16.291-19.178-28.813
		c-1.482-9.396-0.878-18.662,2.53-27.599c4.544-11.914,13.258-19.614,25.056-23.937c8.91-3.265,18.169-4.162,27.601-3.5
		c7.051,0.494,13.869,2.145,20.633,4.095c0.772,0.223,0.946,0.498,0.86,1.307C263.857,105.875,263.284,111.918,262.67,118.148"/>
	<path clip-path="url(#SVGID_2_)" fill="#201D22" d="M214.667,238.091c2.927-3.812,6.631-4.515,10.776-3.618
		c3.476,0.753,5.858,3.77,6.011,8.002c0.189,5.27,0.068,10.549,0.104,15.824c0.004,0.551-0.213,0.67-0.705,0.656
		c-0.958-0.029-1.922-0.06-2.876,0.008c-0.765,0.053-0.932-0.233-0.927-0.952c0.032-3.997,0.025-7.994,0.008-11.99
		c-0.006-1.195-0.076-2.389-0.302-3.572c-0.378-1.988-1.134-3.73-3.231-4.363c-2.358-0.711-4.525-0.184-6.294,1.554
		c-1.819,1.785-2.424,4.124-2.496,6.554c-0.114,3.873-0.08,7.753-0.047,11.629c0.008,0.858-0.15,1.234-1.097,1.143
		c-1.103-0.106-2.574,0.344-3.231-0.216c-0.689-0.588-0.203-2.101-0.204-3.206c-0.015-10.353,0.005-20.705-0.032-31.057
		c-0.004-0.951,0.249-1.24,1.178-1.156c1.068,0.097,2.506-0.344,3.127,0.2c0.723,0.632,0.218,2.103,0.227,3.205
		C214.686,230.411,214.667,234.086,214.667,238.091"/>
	<path clip-path="url(#SVGID_2_)" fill="#201D22" d="M350.429,258.879c-0.27,0.04-0.309,0.053-0.349,0.052
		c-1.997-0.009-4.243,0.547-5.922-0.19c-1.625-0.712-2.678-2.745-3.965-4.212c-2.253-2.57-4.494-5.151-6.928-7.942v10.176
		c0,2.185,0,2.185-2.148,2.185c-2.372,0.001-2.372,0.001-2.372-2.349c0-10.679,0.016-21.356-0.024-32.033
		c-0.004-1.006,0.258-1.344,1.25-1.235c0.751,0.082,1.525,0.079,2.276,0c0.865-0.092,1.044,0.229,1.039,1.055
		c-0.036,6.197-0.021,12.396-0.021,18.596v1.477c0.881-0.875,1.599-1.579,2.305-2.294c2.246-2.275,4.498-4.548,6.725-6.842
		c0.418-0.43,0.834-0.646,1.454-0.63c1.678,0.043,3.358,0.015,5.117,0.015c-0.098,0.496-0.485,0.728-0.772,1.002
		c-3.146,3.013-6.29,6.03-9.477,9c-0.604,0.563-0.663,0.869-0.071,1.489c3.668,3.845,7.293,7.73,10.932,11.604
		C349.766,258.109,350.038,258.435,350.429,258.879"/>
	<path clip-path="url(#SVGID_2_)" fill="#201D22" d="M156.682,238.198c2.993-4.38,8.115-4.697,11.613-3.473
		c3.285,1.151,4.643,3.819,5.134,7.057c0.38,2.505,0.16,5.028,0.19,7.544c0.035,2.919-0.011,5.839,0.023,8.758
		c0.008,0.679-0.189,0.916-0.874,0.877c-0.917-0.053-1.843-0.066-2.758,0.003c-0.753,0.057-0.928-0.195-0.922-0.929
		c0.038-3.999,0.014-7.998,0.021-11.997c0.002-1.283-0.104-2.554-0.363-3.81c-0.398-1.938-1.212-3.591-3.289-4.174
		c-2.292-0.642-4.372-0.124-6.104,1.494c-1.628,1.522-2.264,3.548-2.489,5.693c-0.427,4.066-0.151,8.149-0.166,12.224
		c-0.005,1.134-0.168,1.707-1.454,1.498c-0.972-0.158-2.272,0.415-2.876-0.22c-0.6-0.63-0.172-1.908-0.175-2.9
		c-0.015-6.679,0.01-13.356-0.028-20.035c-0.005-0.896,0.223-1.206,1.134-1.121c1.029,0.098,2.354-0.321,3.03,0.183
		c0.729,0.545,0.163,1.938,0.263,2.955C156.599,237.901,156.626,237.974,156.682,238.198"/>
	<path clip-path="url(#SVGID_2_)" fill="#201D22" d="M35.237,225.787c2.72,0,2.718-0.001,1.806,2.517
		c-1.016,2.806-2.043,5.608-3.027,8.425c-0.201,0.576-0.455,0.835-1.093,0.793c-0.875-0.057-1.757-0.039-2.634-0.005
		c-0.563,0.022-0.686-0.171-0.55-0.699c0.891-3.472,1.767-6.946,2.637-10.423c0.114-0.454,0.326-0.655,0.826-0.62
		C33.876,225.822,34.558,225.787,35.237,225.787"/>
	<path clip-path="url(#SVGID_2_)" fill="#1B7734" d="M92.941,47.993C92.962,48.311,93,48.629,93,48.947
		c0.003,14.634-0.003,29.268,0.018,43.902c0.002,0.877-0.14,1.257-1.159,1.255c-14.834-0.034-29.668-0.023-44.502-0.026
		c-0.277,0-0.555-0.047-0.832-0.071c-0.006-5.558-0.25-11.128,0.027-16.672c0.677-13.507,9.59-24.584,22.524-28.295
		c2.569-0.737,5.211-1.132,7.912-1.105C82.305,47.989,87.623,47.978,92.941,47.993"/>
</g>
</svg>
