<?xml version="1.0" encoding="iso-8859-1"?>
<!-- Generator: Adobe Illustrator 18.0.0, SVG Export Plug-In . SVG Version: 6.00 Build 0)  -->
<!DOCTYPE svg PUBLIC "-//W3C//DTD SVG 1.1//EN" "http://www.w3.org/Graphics/SVG/1.1/DTD/svg11.dtd">
<svg version="1.1" id="Capa_1" xmlns="http://www.w3.org/2000/svg" xmlns:xlink="http://www.w3.org/1999/xlink" x="0px" y="0px"
	 viewBox="0 0 187.334 187.334" style="enable-background:new 0 0 187.334 187.334;" xml:space="preserve">
<g>
	<defs>
		<circle id="SVGID_1_" cx="93.667" cy="93.667" r="93.667"/>
	</defs>
	<clipPath id="SVGID_2_">
		<use xlink:href="#SVGID_1_"  style="overflow:visible;"/>
	</clipPath>
	<circle style="clip-path:url(#SVGID_2_);fill:#65C835;" cx="93.667" cy="93.667" r="93.667"/>
	<path style="opacity:0.4;clip-path:url(#SVGID_2_);fill:#489321;" d="M344.233,271.203l-2.354-4.775
		c-3.427-6.953-7.5-13.518-12.103-19.51c-5.652-7.357-12.485-14.129-19.841-19.727c2.893-1.105,5.482-2.405,7.798-3.914
		c11.674-7.604,17.961-19.11,19.141-35.089c3.292-1.464,6.168-3.994,8.235-7.328c2.801-4.515,3.958-10.128,3.26-15.806
		c-1.031-8.403-5.84-15.288-12.338-18.295c-0.141-18.216-5.681-33.126-16.495-44.363c-19.328-20.084-47.62-20.316-47.903-20.316
		c-0.167,0-0.317,0.002-0.449,0.006c-0.134-0.004-0.284-0.006-0.45-0.006c-0.283,0-28.576,0.232-47.904,20.316
		c-10.748,11.168-16.285,25.964-16.492,44.027c-7.507,3.097-12.708,11.48-12.534,21.331c0.16,9.025,4.847,16.807,11.671,20.166
		c1.129,16.119,7.42,27.711,19.159,35.356c2.308,1.503,4.888,2.8,7.77,3.902c-6.115,4.804-13.837,11.618-20.31,20.046
		c-2.867,3.733-5.587,7.76-8.083,11.97l-2.667,4.498l1.154,0.86c-0.643,1.192-1.265,2.39-1.861,3.586l-4.188,8.407h148.888
		l-2.243-4.649L344.233,271.203z"/>
	<g style="clip-path:url(#SVGID_2_);">
		<g>
			<path style="fill:#FFB37F;" d="M228.002,270.732c1.451-2.275,2.991-4.493,4.618-6.64c10.838-14.309,22.547-21.842,22.761-21.977
				c4.521-2.842,5.892-8.808,3.059-13.338c-2.836-4.539-8.815-5.917-13.352-3.082c-0.582,0.364-14.407,9.106-27.415,26.04
				c-4.507,5.868-8.479,12.267-11.832,18.997H228.002z"/>
			<path style="fill:#FFC695;" d="M286.49,241.809c0.212,0.136,11.921,7.668,22.759,21.978c1.704,2.25,3.303,4.569,4.8,6.945h22.026
				c-3.269-6.764-7.213-13.229-11.879-19.303c-13.006-16.934-26.832-25.676-27.415-26.04c-4.536-2.835-10.515-1.457-13.352,3.082
				C280.599,233.001,281.969,238.967,286.49,241.809z"/>
		</g>
		<path style="fill:#F29555;" d="M314,270.732c-2.22-27.451-8.134-35.855-13.191-41.373c-4.784-5.219-21.075-13.098-29.625-10.803
			c-8.55-2.295-24.841,5.584-29.625,10.803c-5.059,5.518-10.972,13.922-13.191,41.373H314z"/>
		<g>
			<g>
				
					<ellipse transform="matrix(0.9926 -0.1218 0.1218 0.9926 -17.9373 41.3845)" style="fill:#FFB37F;" cx="329.456" cy="167.376" rx="13.242" ry="16.472"/>
				
					<ellipse transform="matrix(0.9998 -0.0177 0.0177 0.9998 -2.9294 3.793)" style="fill:#F29555;" cx="212.857" cy="167.417" rx="13.243" ry="16.472"/>
			</g>
			<g>
				<path style="fill:#C6DFE0;" d="M228.016,270.732c1.45-2.274,2.98-4.495,4.605-6.64c10.838-14.309,22.547-21.842,22.761-21.977
					c0.158-0.099,0.303-0.211,0.453-0.317c-5.875-3.15-8.659-10.196-11.302-16.347c-4.644,3.313-17.925,12.42-27.829,25.316
					c-2.774,3.612-5.341,7.428-7.692,11.394c3.475,2.593,7.364,5.63,11.074,8.572H228.016z"/>
				<path style="fill:#C6DFE0;" d="M309.249,263.786c1.704,2.25,3.302,4.569,4.797,6.945h19.844c0.939-0.6,1.87-1.185,2.774-1.733
					c-3.196-6.485-7.01-12.695-11.499-18.538c-12.741-16.589-27.23-24.342-28.323-25.033c-2.163,6.257-6.43,11.599-11.927,15.149
					c0.474,0.455,0.998,0.87,1.575,1.232C286.702,241.944,298.411,249.477,309.249,263.786z"/>
			</g>
			<path style="fill:#E1F7F9;" d="M314.879,270.732c-1.978-28.582-8.945-35.781-14.07-41.373c-1.612-1.759-4.534-3.819-8.023-5.69
				c-5.359,6.789-13.637,11.212-22.796,11.212c-8.742,0-16.679-4.029-22.044-10.298c-2.76,1.611-5.033,3.3-6.387,4.776
				c-5.126,5.592-11.65,12.791-13.706,41.373H314.879z"/>
			<g>
				<path style="fill:#FFB37F;" d="M272.159,106.457c-14.623,0.678-29.799,4.709-40.695,12.146
					c-16.055,10.959-17.71,33.795-19.614,51.353c-2.011,18.535-0.984,37.415,15.957,48.448c11.812,7.693,30.481,7.471,44.353,8.588
					V106.457z"/>
				<path style="fill:#FFC695;" d="M271.176,106.457c14.625,0.678,28.83,4.709,39.728,12.146
					c16.055,10.959,17.71,33.795,19.614,51.353c2.01,18.535,0.984,37.415-15.957,48.448c-11.811,7.693-29.513,7.471-43.385,8.588
					V106.457z"/>
			</g>
		</g>
		<g>
			<ellipse style="opacity:0.4;fill:#FF571F;" cx="237.107" cy="192.245" rx="11.628" ry="10.659"/>
			<ellipse style="opacity:0.4;fill:#FF571F;" cx="305.258" cy="192.245" rx="11.628" ry="10.659"/>
		</g>
		<path style="fill:#74320A;" d="M271.184,87.903c-4.199-0.244-61.261,3.353-58.971,63.044c0,0,6.246,13.508,6.253,13.521
			c-1.292-7.752,8.028-17.075,11.172-20.053c15.247-14.446,28.996,1.037,43.326,7.462c10.99,4.928,23.876,8.358,35.668,4.213
			c2.881-1.013,6.385-2.988,9.297-5.497c5.095,7.385,5.972,13.875,5.972,13.875l6.253-13.521
			C332.442,91.256,275.381,87.659,271.184,87.903z"/>
		<g>
			<circle style="fill:#333331;" cx="241.994" cy="173.983" r="6.286"/>
			<circle style="fill:#333331;" cx="300.372" cy="173.983" r="6.286"/>
		</g>
		<path style="fill:#F29555;" d="M282.164,187.724c0,3.389-2.747,6.137-6.136,6.137h-9.69c-3.389,0-6.137-2.748-6.137-6.137l0,0
			c0-3.39,2.748-6.137,6.137-6.137h9.69C279.417,181.587,282.164,184.334,282.164,187.724L282.164,187.724z"/>
		<path style="fill:#F29555;" d="M284.301,200.02c-1.588-0.198-3.029,0.919-3.24,2.498c-0.114,0.754-1.291,6.76-9.877,7.168
			c-8.587-0.408-9.764-6.414-9.878-7.168c-0.211-1.579-1.652-2.696-3.24-2.498c-1.593,0.199-2.723,1.651-2.524,3.245
			c0.525,4.202,4.482,11.732,15.48,12.21v0.023c0.056-0.002,0.105-0.01,0.162-0.013c0.056,0.003,0.105,0.011,0.161,0.013v-0.023
			c10.998-0.477,14.955-8.008,15.48-12.21C287.023,201.671,285.893,200.219,284.301,200.02z"/>
	</g>
	<g style="clip-path:url(#SVGID_2_);">
		<g>
			<g>
				<path style="fill:#FFB37F;" d="M55.744,187.357c0.967-1.423,1.974-2.821,3.026-4.182c9.276-12,19.297-18.317,19.479-18.432
					c3.869-2.382,5.042-7.387,2.619-11.187c-2.427-3.806-7.545-4.961-11.428-2.583c-0.498,0.305-12.331,7.638-23.464,21.838
					c-3.541,4.517-6.69,9.41-9.404,14.546H55.744z"/>
				<path style="fill:#FFC695;" d="M104.874,164.487c0.182,0.112,10.204,6.43,19.479,18.431c1.119,1.447,2.182,2.929,3.198,4.439
					h19.067c-2.658-5.17-5.805-10.124-9.472-14.802c-11.132-14.202-22.965-21.532-23.463-21.84c-3.884-2.377-9-1.221-11.429,2.585
					C99.831,157.1,101.004,162.104,104.874,164.487z"/>
			</g>
			<path style="fill:#F29555;" d="M128.302,187.357c-1.986-21.924-6.931-28.777-11.172-33.311
				c-4.095-4.378-18.037-10.985-25.355-9.06c-7.317-1.925-21.26,4.682-25.355,9.06c-4.24,4.534-9.186,11.387-11.171,33.311H128.302z
				"/>
			<path style="fill:#93E2CE;" d="M129.07,187.357c-1.821-22.822-7.639-28.713-11.941-33.311c-1.38-1.477-3.88-3.203-6.867-4.773
				c-4.587,5.693-11.67,9.402-19.51,9.402c-7.481,0-14.274-3.379-18.868-8.637c-2.36,1.351-4.307,2.769-5.465,4.007
				c-4.301,4.598-9.754,10.489-11.624,33.311H129.07z"/>
			<polygon style="fill:#B8D6DD;" points="79.919,187.357 80.894,146.998 69.854,146.097 54.87,187.357 			"/>
			<polygon style="fill:#D2EEF5;" points="128.889,187.357 113.903,146.097 102.865,146.998 103.845,187.357 			"/>
			<g>
				<path style="fill:#D2EEF5;" d="M55.744,187.357c0.967-1.423,1.974-2.821,3.026-4.182c4.075-5.271,8.293-9.445,11.758-12.479
					v-20.274c-0.37,0.159-0.735,0.335-1.087,0.551c-0.498,0.305-12.331,7.638-23.464,21.838c-3.541,4.517-6.69,9.41-9.404,14.546
					H55.744z"/>
				<path style="fill:#D2EEF5;" d="M124.353,182.918c1.119,1.447,2.182,2.929,3.198,4.439h19.057
					c-2.657-5.169-5.794-10.126-9.461-14.802c-11.132-14.202-22.965-21.532-23.463-21.84c-0.146-0.089-0.298-0.164-0.448-0.243
					v20.534C116.573,173.985,120.526,177.966,124.353,182.918z"/>
			</g>
			<g>
				<g>
					<path style="fill:#FFB37F;" d="M152.897,100.71c0.948,7.573-3.32,14.317-9.533,15.064c-6.212,0.747-12.018-4.786-12.966-12.358
						c-0.948-7.573,3.319-14.318,9.532-15.066C146.143,87.604,151.948,93.137,152.897,100.71z"/>
					<path style="fill:#F29555;" d="M53.188,101.901c0.137,7.628-4.825,13.9-11.084,14.008c-6.259,0.108-11.443-5.988-11.58-13.616
						c-0.137-7.628,4.824-13.901,11.083-14.009C47.865,88.176,53.049,94.272,53.188,101.901z"/>
				</g>
				<g>
					<path style="fill:#FFC695;" d="M92.61,50.972c-12.516,0.568-25.504,3.949-34.83,10.188
						c-13.74,9.189-15.158,28.341-16.787,43.066c-1.721,15.544-0.842,31.379,13.657,40.632c10.108,6.452,26.088,6.265,37.96,7.201
						V50.972z"/>
					<path style="fill:#FFC695;" d="M91.768,50.972c12.517,0.568,24.675,3.949,34.001,10.188
						c13.741,9.189,15.158,28.341,16.788,43.066c1.72,15.544,0.842,31.379-13.657,40.632c-10.109,6.452-25.259,6.265-37.131,7.201
						V50.972z"/>
				</g>
				<g>
					<ellipse style="fill:#333331;" cx="66.792" cy="107.604" rx="5.38" ry="5.272"/>
					<ellipse style="fill:#333331;" cx="116.756" cy="107.604" rx="5.38" ry="5.272"/>
				</g>
				<path style="fill:#F29555;" d="M101.172,119.127c0,2.843-2.351,5.146-5.252,5.146h-8.293c-2.9,0-5.253-2.304-5.253-5.146l0,0
					c0-2.842,2.353-5.147,5.253-5.147h8.293C98.821,113.98,101.172,116.285,101.172,119.127L101.172,119.127z"/>
				<path style="fill:#F29555;" d="M102.51,128.683c-1.368-0.071-2.532,0.948-2.617,2.281c-0.052,0.637-0.696,5.731-8.002,6.578
					c-7.355,0.164-8.721-4.791-8.862-5.416c-0.276-1.309-1.574-2.158-2.918-1.899c-1.347,0.26-2.225,1.542-1.96,2.864
					c0.701,3.485,4.532,9.551,13.95,9.305l0.001,0.019c0.047-0.005,0.089-0.014,0.138-0.019c0.047-0.001,0.089,0.002,0.138,0
					l-0.001-0.019c9.36-1.047,12.286-7.581,12.483-11.126C104.934,129.905,103.881,128.756,102.51,128.683z"/>
			</g>
		</g>
		<path style="fill:#9A9798;" d="M143.229,88.217C156.498,44.877,122.792,33.5,91.813,33.5c-28.197,0-60.263,11.378-51.417,54.718
			c0,0,1.455,13.842,1.459,13.878C40.33,88.917,49.9,69.971,61.958,70.339c5.376,0.166,15.48,9.752,29.854,10.218
			c0,0.002,0,0.003,0,0.004c0,0,0-0.001,0-0.002c0.001,0.001,0.001,0.002,0.001,0.002c0-0.001-0.001-0.004,0-0.004
			c14.374-0.466,21.99-10.052,27.367-10.218c12.057-0.368,24.116,18.578,22.591,31.755
			C141.774,102.058,143.229,88.217,143.229,88.217z"/>
		<path style="fill:#FFFFFF;" d="M116.415,92.146c-8.068,0-14.757,5.826-15.96,13.408H82.702
			c-0.961-7.846-7.784-13.951-16.044-13.951c-8.917,0-16.171,7.108-16.171,15.847c0,8.738,7.255,15.847,16.171,15.847
			c7.877,0,14.447-5.55,15.875-12.866h17.923c1.202,7.581,7.891,13.408,15.96,13.408c8.917,0,16.172-7.108,16.172-15.847
			C132.587,99.254,125.332,92.146,116.415,92.146z M66.657,119.233c-6.63,0-12.025-5.286-12.025-11.783
			c0-6.497,5.395-11.783,12.025-11.783s12.025,5.286,12.025,11.783C78.682,113.947,73.288,119.233,66.657,119.233z M116.415,119.775
			c-6.63,0-12.024-5.287-12.024-11.784c0-6.497,5.395-11.783,12.024-11.783c6.63,0,12.025,5.286,12.025,11.783
			C128.44,114.489,123.045,119.775,116.415,119.775z"/>
		<polygon style="fill:#D2EEF5;" points="80.318,187.357 81.308,151.062 68.869,149.843 60.576,157.156 65.94,187.357 		"/>
		<g>
			<path style="fill:#84AEB2;" d="M67.646,187.357c-4.081-26.396,3.307-35.8,3.381-35.891c0.29-0.337,0.444-0.741,0.475-1.15
				c-1.414-0.207-2.813-0.449-4.186-0.732c-1.847,2.751-7.508,13.52-3.864,37.773H67.646z"/>
		</g>
		<polygon style="fill:#EBF5F7;" points="118.237,187.357 123.602,157.156 115.31,149.843 102.87,151.062 103.859,187.357 		"/>
		<g>
			<path style="fill:#84AEB2;" d="M121.404,187.357c-1.236-20.149-5.704-33.143-7.337-37.309c-1.39,0.243-2.798,0.445-4.214,0.618
				c0.986,2.395,6.008,15.52,7.375,36.691H121.404z"/>
		</g>
	</g>
</g>
<g>
</g>
<g>
</g>
<g>
</g>
<g>
</g>
<g>
</g>
<g>
</g>
<g>
</g>
<g>
</g>
<g>
</g>
<g>
</g>
<g>
</g>
<g>
</g>
<g>
</g>
<g>
</g>
<g>
</g>
</svg>
