<svg height='100px' width='100px'  fill="#000000" xmlns="http://www.w3.org/2000/svg" xmlns:xlink="http://www.w3.org/1999/xlink" version="1.1" x="0px" y="0px" viewBox="0 0 100 100" enable-background="new 0 0 100 100" xml:space="preserve"><path fill="none" stroke="#000000" stroke-width="3" stroke-linejoin="round" stroke-miterlimit="10" d="M74.045,87.579  c0,2.05-1.662,3.711-3.711,3.711H21.088c-2.049,0-3.711-1.661-3.711-3.711V16.315c0-2.049,1.662-3.711,3.711-3.711h1.093"></path><polyline fill="none" stroke="#000000" stroke-width="3" stroke-linejoin="round" stroke-miterlimit="10" points="63.741,8.72   63.678,23.157 78.901,23.157 "></polyline><path fill="none" stroke="#000000" stroke-width="3" stroke-linejoin="round" stroke-miterlimit="10" d="M78.901,22.436v61.258  c0,2.05-1.662,3.711-3.711,3.711H25.944c-2.049,0-3.711-1.661-3.711-3.711V12.431c0-2.049,1.662-3.711,3.711-3.711h37.797  L78.901,22.436z"></path><line fill="none" stroke="#000000" stroke-width="3" stroke-linejoin="round" stroke-miterlimit="10" x1="32.186" y1="41.814" x2="68.948" y2="41.814"></line><line fill="none" stroke="#000000" stroke-width="3" stroke-linejoin="round" stroke-miterlimit="10" x1="32.186" y1="49.502" x2="68.948" y2="49.502"></line><line fill="none" stroke="#000000" stroke-width="3" stroke-linejoin="round" stroke-miterlimit="10" x1="32.186" y1="57.191" x2="68.948" y2="57.191"></line><line fill="none" stroke="#000000" stroke-width="3" stroke-linejoin="round" stroke-miterlimit="10" x1="59.38" y1="64.961" x2="68.948" y2="64.961"></line><line fill="none" stroke="#000000" stroke-width="3" stroke-linejoin="round" stroke-miterlimit="10" x1="59.38" y1="71.759" x2="68.948" y2="71.759"></line><path fill="none" stroke="#000000" stroke-width="2.4" stroke-miterlimit="10" d="M58.771,29.549H52.59v6.181h-4.83v-6.181H41.58  v-4.83h6.181v-6.181h4.83v6.181h6.181V29.549z"></path><line fill="none" stroke="#000000" stroke-width="3" stroke-linecap="round" stroke-linejoin="round" stroke-miterlimit="10" x1="50.176" y1="64.064" x2="50.176" y2="66.314"></line><line fill="none" stroke="#000000" stroke-width="3" stroke-linecap="round" stroke-linejoin="round" stroke-miterlimit="10" x1="50.176" y1="80.626" x2="50.176" y2="78.375"></line><path fill="none" stroke="#000000" stroke-width="3" stroke-linecap="round" stroke-linejoin="round" stroke-miterlimit="10" d="  M46.922,77.514c0,0,5.256,2.734,6.376-1.535c1.208-4.607-6.244-3.18-6.376-6.945c-0.159-4.585,6.376-1.982,6.376-1.982"></path><line fill="none" stroke="#000000" stroke-width="3" stroke-linejoin="round" stroke-miterlimit="10" x1="32.186" y1="64.961" x2="36.481" y2="64.961"></line><line fill="none" stroke="#000000" stroke-width="3" stroke-linejoin="round" stroke-miterlimit="10" x1="38.013" y1="64.961" x2="42.308" y2="64.961"></line></svg>