<?xml version="1.0" encoding="utf-8"?><svg version="1.1" id="Layer_1" xmlns="http://www.w3.org/2000/svg" xmlns:xlink="http://www.w3.org/1999/xlink" x="0px" y="0px" viewBox="0 0 120.48 122.88" style="enable-background:new 0 0 120.48 122.88" xml:space="preserve"><style type="text/css">.st0{fill-rule:evenodd;clip-rule:evenodd;}</style><g><path class="st0" d="M42.98,77.01c5.64,16.6,29.21,17.21,34.51,0c6.24,5.61,24.7,6.74,31.57,10.57c2.17,1.21,4.14,2.75,5.71,4.84 c2.39,3.16,3.86,7.29,4.26,12.54l1.43,11.76c-0.35,3.71-2.45,5.85-6.6,6.16H6.6c-4.14-0.32-6.25-2.45-6.6-6.16l1.43-11.76 c0.4-5.24,1.87-9.37,4.26-12.54c1.58-2.09,3.54-3.63,5.71-4.84C18.28,83.75,36.74,82.63,42.98,77.01L42.98,77.01L42.98,77.01z M91.73,94.72h3.61c0.68,0,1.23,0.55,1.23,1.23v5.39h5.39c0.67,0,1.23,0.55,1.23,1.23v3.61c0,0.67-0.55,1.23-1.23,1.23h-5.39v5.39 c0,0.67-0.55,1.23-1.23,1.23h-3.61c-0.67,0-1.23-0.55-1.23-1.23v-5.39h-5.39c-0.67,0-1.23-0.55-1.23-1.23v-3.61 c0-0.67,0.55-1.23,1.23-1.23h5.39v-5.39C90.5,95.27,91.05,94.72,91.73,94.72L91.73,94.72z M38.66,36.82 c-1.18,0.05-2.08,0.29-2.69,0.7c-0.35,0.23-0.61,0.53-0.77,0.89c-0.18,0.4-0.27,0.88-0.25,1.43c0.05,1.62,0.9,3.75,2.54,6.19 l0.02,0.04l0,0l5.34,8.49c2.14,3.4,4.38,6.87,7.17,9.42c2.68,2.45,5.93,4.11,10.23,4.12c4.66,0.01,8.06-1.71,10.83-4.3 c2.88-2.69,5.14-6.38,7.38-10.07l6.01-9.9c1.12-2.56,1.53-4.27,1.27-5.27c-0.15-0.6-0.81-0.89-1.94-0.95 c-0.24-0.01-0.48-0.01-0.73-0.01c-0.27,0.01-0.55,0.03-0.84,0.05c-0.16,0.01-0.32,0-0.46-0.03c-0.53,0.03-1.09-0.01-1.65-0.09 l2.06-9.11c-15.28,2.41-26.7-8.94-42.85-2.27L40.5,36.9C39.84,36.93,39.23,36.91,38.66,36.82L38.66,36.82L38.66,36.82z M85.86,34.91c1.48,0.45,2.43,1.39,2.82,2.91c0.43,1.68-0.04,4.05-1.46,7.29l0,0c-0.03,0.06-0.06,0.12-0.09,0.17L81.04,55.3 c-2.34,3.86-4.72,7.73-7.9,10.7c-3.29,3.08-7.34,5.13-12.89,5.12c-5.18-0.01-9.07-1.99-12.27-4.91c-3.09-2.82-5.45-6.47-7.69-10.03 l-5.34-8.49c-1.95-2.91-2.97-5.57-3.03-7.75c-0.03-1.03,0.15-1.96,0.52-2.78c0.4-0.86,1.01-1.58,1.83-2.13 c0.39-0.26,0.82-0.48,1.29-0.66c-0.35-4.6-0.48-10.4-0.25-15.26c0.12-1.15,0.34-2.3,0.66-3.46c1.36-4.87,4.78-8.79,9.02-11.49 c1.49-0.95,3.13-1.74,4.85-2.36C60.1-1.91,73.69,0.11,80.97,7.98c2.96,3.21,4.82,7.46,5.22,13.08L85.86,34.91L85.86,34.91 L85.86,34.91z"/></g></svg>